<svg xmlns="http://www.w3.org/2000/svg" viewBox="0 0 612 530.4">
    <path d="M408,40.8a45.9,45.9,0,1,0,45.9,45.9A45.71,45.71,0,0,0,408,40.8Zm77.64,275.41H484.5c-40.09,0-75.36,17.69-98.58,45.84A127.48,127.48,0,0,0,357,443.7a129.59,129.59,0,0,0,9.8,49.84,125.36,125.36,0,0,0,29.68,43.12c22.73,21.51,53.6,34.54,88,34.54,35.52,0,67.26-13.88,90.17-36.64a125.35,125.35,0,0,0,28.67-43.86,130.06,130.06,0,0,0,8.66-47C612,372.68,556.5,316.8,485.64,316.21ZM484.5,525.36a81.66,81.66,0,0,1-81.66-81.66c0-.27,0-.53,0-.8A81.65,81.65,0,0,1,566.11,441c0,.9,0,1.8,0,2.71a81.65,81.65,0,0,1-81.66,81.66ZM402.9,219.3l-33.69-58.52-14.76-25.63c-7.65-12.75-20.4-20.4-38.25-20.4a42.23,42.23,0,0,0-30.6,12.75l-94.35,94.35a42.23,42.23,0,0,0-12.75,30.6c0,15.3,7.65,30.6,20.4,38.25l13.52,8,73.18,43V469.2h45.9V303.45l-.83-.64L275.4,260.1l58.65-58.65,15.19,22.34,10.62,15.61,17.54,25.8H484.5V219.3ZM252.59,418.45a125.56,125.56,0,0,0-68.07-89.21,129.1,129.1,0,0,0-57-13C56.1,316.2,0,372.3,0,443.7a129.59,129.59,0,0,0,9.8,49.84,125.36,125.36,0,0,0,29.68,43.12c22.73,21.51,53.6,34.54,88,34.54,35.52,0,67.26-13.88,90.17-36.64a125.35,125.35,0,0,0,28.67-43.86,130.06,130.06,0,0,0,8.66-47A132.41,132.41,0,0,0,252.59,418.45ZM127.5,525.36A81.66,81.66,0,0,1,45.84,443.7c0-.27,0-.53,0-.8A81.65,81.65,0,0,1,209.11,441c0,.9,0,1.8,0,2.71a81.65,81.65,0,0,1-81.66,81.66Z" transform="translate(0 -40.8)"/>
</svg>