<?xml version="1.0" encoding="iso-8859-1"?>
<!-- Generator: Adobe Illustrator 19.0.0, SVG Export Plug-In . SVG Version: 6.00 Build 0)  -->
<svg version="1.1" id="Capa_1" xmlns="http://www.w3.org/2000/svg" xmlns:xlink="http://www.w3.org/1999/xlink" x="0px" y="0px"
	 viewBox="0 0 474.624 474.624" style="enable-background:new 0 0 474.624 474.624;" xml:space="preserve">
<g>
	<g>
		<path d="M428.544,52.736H45.568c-7.168,0-13.824,1.536-19.968,4.608l211.456,171.52l211.456-171.52
			C442.368,54.272,436.224,52.736,428.544,52.736z"/>
	</g>
</g>
<g>
	<g>
		<path d="M251.392,275.968c-4.096,3.584-9.216,5.12-14.336,5.12s-10.24-1.536-14.336-5.12L0,95.232c0,1.024,0,1.536,0,3.072V376.32
			c0,25.088,20.48,45.568,45.568,45.568h383.488c25.088,0,45.568-20.48,45.568-45.568V98.304c0-1.024,0-1.536,0-3.072
			L251.392,275.968z"/>
	</g>
</g>
<g>
</g>
<g>
</g>
<g>
</g>
<g>
</g>
<g>
</g>
<g>
</g>
<g>
</g>
<g>
</g>
<g>
</g>
<g>
</g>
<g>
</g>
<g>
</g>
<g>
</g>
<g>
</g>
<g>
</g>
</svg>
