<?xml version="1.0" encoding="UTF-8" standalone="no"?>
<!-- Created with Inkscape (http://www.inkscape.org/) -->

<svg
   xmlns:dc="http://purl.org/dc/elements/1.1/"
   xmlns:cc="http://creativecommons.org/ns#"
   xmlns:rdf="http://www.w3.org/1999/02/22-rdf-syntax-ns#"
   xmlns:svg="http://www.w3.org/2000/svg"
   xmlns="http://www.w3.org/2000/svg"
   xmlns:sodipodi="http://sodipodi.sourceforge.net/DTD/sodipodi-0.dtd"
   xmlns:inkscape="http://www.inkscape.org/namespaces/inkscape"
   width="561.0011mm"
   height="106.68356mm"
   viewBox="0 0 561.0011 106.68356"
   version="1.1"
   id="svg8"
   inkscape:version="0.92.4 (5da689c313, 2019-01-14)"
   sodipodi:docname="Logo.svg">
  <defs
     id="defs2" />
  <sodipodi:namedview
     id="base"
     pagecolor="#ffffff"
     bordercolor="#666666"
     borderopacity="1.0"
     inkscape:pageopacity="0.0"
     inkscape:pageshadow="2"
     inkscape:zoom="0.088388348"
     inkscape:cx="176.65772"
     inkscape:cy="941.68824"
     inkscape:document-units="mm"
     inkscape:current-layer="g61"
     showgrid="false"
     fit-margin-top="0"
     fit-margin-left="0"
     fit-margin-right="0"
     fit-margin-bottom="0"
     inkscape:window-width="1920"
     inkscape:window-height="1017"
     inkscape:window-x="1912"
     inkscape:window-y="-8"
     inkscape:window-maximized="1" />
  <metadata
     id="metadata5">
    <rdf:RDF>
      <cc:Work
         rdf:about="">
        <dc:format>image/svg+xml</dc:format>
        <dc:type
           rdf:resource="http://purl.org/dc/dcmitype/StillImage" />
        <dc:title></dc:title>
      </cc:Work>
    </rdf:RDF>
  </metadata>
  <g
     inkscape:label="Capa 1"
     inkscape:groupmode="layer"
     id="layer1"
     transform="translate(177.69734,71.724951)">
    <g
       id="g61"
       transform="translate(-790.26253,-44.90128)">
      <path
         style="fill:#000000;stroke-width:0.08466666"
         d="m 642.4525,79.768929 c -5.67487,-0.47718 -10.77457,-2.23035 -15.40933,-5.29744 -7.74183,-5.12319 -12.97856,-13.47033 -14.17476,-22.59397 -0.0733,-0.5588 -0.17107,-1.4732 -0.21735,-2.032 -0.0541,-0.65308 -0.0845,-14.52742 -0.085,-38.84083 l -8.7e-4,-37.82483 h 13.92692 13.92692 l 0.0219,37.57083 0.0219,37.57083 0.18925,0.55644 c 0.47695,1.40234 1.54861,2.45719 2.94341,2.89725 l 0.59267,0.18698 h 11.72633 11.72634 l 0.59618,-0.18758 c 1.56503,-0.4924 2.78719,-1.86079 3.07907,-3.44747 0.0659,-0.35812 0.0924,-11.22011 0.0924,-37.82484 v -37.32244 h 13.92767 13.92766 l 10e-4,37.35916 c 10e-4,31.74131 0.0193,37.44347 0.12031,37.91983 0.32651,1.54039 1.51543,2.83303 3.04971,3.31576 l 0.59618,0.18758 h 11.72633 11.72633 l 0.59267,-0.18698 c 1.37739,-0.43456 2.47261,-1.5109 2.94138,-2.89066 l 0.19132,-0.56303 0.022,-37.57083 0.022,-37.57083 h 13.92683 13.92683 l -8.5e-4,37.82483 c -8.5e-4,24.31341 -0.0309,38.18775 -0.085,38.84083 -0.48103,5.80829 -2.20929,10.87051 -5.30417,15.53633 -5.1446,7.75598 -13.46855,12.97855 -22.59228,14.17476 -0.5588,0.0733 -1.4732,0.17108 -2.032,0.21735 -1.23116,0.10196 -84.42605,0.0971 -85.64034,-0.005 z m 123.02155,-37.73391 c 8.5e-4,-24.1506 0.0311,-38.1921298 0.0845,-38.8408298 0.47729,-5.79927 2.20069,-10.84835 5.30298,-15.5363302 4.89086,-7.39073 12.75146,-12.52345 21.45098,-14.0068 2.53508,-0.43225 1.9099,-0.41605 17.31434,-0.44869 15.69578,-0.0333 15.97384,-0.0266 18.73549,0.44873 11.88535,2.04563 21.59625,10.47096 25.31701,21.9654202 0.59649,1.84271 0.97712,3.53061996 1.30785,5.79967 l 0.18512,1.27 0.0249,38.5868298 0.0249,38.58683 H 841.29351 827.3649 l -0.0214,-15.47283 -0.0214,-15.47283 h -16.97567 -16.97566 l -0.0214,15.47283 -0.0214,15.47283 h -13.92744 -13.92744 l 8.4e-4,-37.82483 z m 56.59892,-30.90387 -6.30779,-0.0217 V -1.5476708 c 0,-6.96142 -0.0286,-12.6571302 -0.0636,-12.6571302 -0.035,0 -5.75946,5.6959502 -12.72106,12.6576602 L 790.32307,11.110529 h 6.37106 6.37106 v 12.67873 12.67872 l 12.65778,-12.65756 12.65779,-12.65756 z m 70.40021,68.63778 c -5.67487,-0.47718 -10.77457,-2.23035 -15.40933,-5.29744 -7.74184,-5.12319 -12.97856,-13.47033 -14.17476,-22.59397 -0.0733,-0.5588 -0.17108,-1.4732 -0.21736,-2.032 -0.0541,-0.65308 -0.0845,-14.52742 -0.085,-38.84083 l -8.7e-4,-37.82483 h 13.92692 13.92692 l 0.0219,37.57083 0.0219,37.57083 0.18924,0.55644 c 0.4684,1.37718 1.51863,2.42585 2.90109,2.89676 l 0.55033,0.18747 17.9705,0.0227 17.9705,0.0227 v 13.92614 13.92614 l -18.39383,-0.0116 c -10.11661,-0.006 -18.75578,-0.0421 -19.19817,-0.0793 z m 48.42934,-39.32141 V 1.0351892 h -11.43 -11.43 v -13.9276702 -13.92766 h 36.83 36.83 v 13.92766 13.9276702 h -11.43 -11.43 v 39.4123298 39.41233 h -13.97 -13.97 z m 86.95268,39.32141 c -5.6749,-0.47718 -10.7746,-2.23035 -15.4094,-5.29744 -7.4239,-4.91282 -12.50093,-12.69166 -14.00553,-21.45875 -0.48182,-2.80752 -0.47149,-2.22644 -0.47106,-26.49289 0,-22.3241098 0.01,-23.1314398 0.30188,-25.3576598 0.62423,-4.76108 2.38111,-9.42525 5.08681,-13.5043302 3.7061,-5.58734 9.1406,-9.94542 15.399,-12.34896 2.4037,-0.92314 4.895,-1.53284 7.9129,-1.93656 0.9627,-0.12878 3.1377,-0.14403 24.0665,-0.16881 l 23.0082,-0.0272 v 13.92804 13.9280502 l -22.1192,0.0226 -22.1191,0.0226 -0.563,0.19129 c -1.3798,0.46876 -2.4561,1.56399 -2.8907,2.94138 -0.1814,0.5751 -0.187,0.70682 -0.187,4.445 v 3.8523298 l 23.9395,0.0213 23.9395,0.0213 v 13.92752 13.92752 h -23.9666 -23.9666 l 0.031,3.95816 c 0.03,3.80224 0.038,3.98009 0.2163,4.51461 0.456,1.36868 1.5125,2.42509 2.8972,2.89676 l 0.5504,0.18747 22.1191,0.0224 22.1192,0.0224 v 13.92642 13.92641 l -22.5425,-0.0116 c -12.3984,-0.006 -22.9044,-0.0421 -23.3468,-0.0793 z m 53.1071,-38.32658 c 0.022,-36.2307598 0.032,-38.4825498 0.1734,-39.5604998 0.7364,-5.60063 2.5606,-10.40959 5.5884,-14.7319902 5.052,-7.21207 12.6035,-12.01162 21.2366,-13.4975 2.691,-0.46315 3.0098,-0.47154 17.9385,-0.4716 11.479,-4e-5 13.9968,0.0208 15.1977,0.12592 6.7857,0.59393 12.9129,3.05929 18.3726,7.39243 1.2233,0.97088 4.0525,3.78706 5.0154,4.99232 3.9598,4.9566202 6.3037,10.5501502 6.9795,16.6560902 0.1623,1.46609 0.1633,21.3333698 10e-4,22.6906698 -0.5264,4.40726 -1.826,7.75279 -4.2757,11.00666 -1.231,1.63517 -3.816,3.92775 -5.8154,5.15752 -0.4424,0.2721 -0.8131,0.50168 -0.8237,0.51018 -0.011,0.008 0.3894,0.17432 0.889,0.36848 4.2662,1.65805 6.6327,5.11586 7.9794,11.65916 0.163,0.79203 4.1473,25.78331 4.1473,26.01378 0,0.0843 -3.0655,0.10588 -15.0615,0.10588 h -15.0615 l -0.046,-0.1905 c -0.025,-0.10477 -0.9857,-5.23875 -2.1338,-11.40883 -1.5634,-8.40262 -2.139,-11.33354 -2.2931,-11.67735 -0.4735,-1.05669 -1.3063,-1.79032 -2.4353,-2.14539 l -0.6028,-0.18959 h -13.5467 -13.5466 l -0.021,12.80583 -0.021,12.80583 h -13.9284 -13.9284 l 0.023,-38.4175 z"
         id="path63"
         inkscape:connector-curvature="0" />
    </g>
  </g>
</svg>
