<svg id="Capa_1" data-name="Capa 1" xmlns="http://www.w3.org/2000/svg" viewBox="0 0 484.86 162.57"><title>logotipo</title><path d="M476.72,339.66l61.84,162.57H490.25l-8.64-22.63h-63l-8.87,22.63H361.34l63.54-162.57Zm-40.47,94.81h28.19l-13.86-36.6Z" transform="translate(-53.71 -339.66)"/><path d="M291.22,339.66a81.29,81.29,0,0,0-81.28,81.28v81.29h81.28a81.3,81.3,0,0,0,81.29-81.29V339.66Zm0,117.44A36.16,36.16,0,1,1,327.38,421,36.16,36.16,0,0,1,291.22,457.1Z" transform="translate(-53.71 -339.66)"/><path d="M195.36,339.67,132.15,457.1h63.21v45.13H53.72l63.2-117.44H53.71V339.66Z" transform="translate(-53.71 -339.66)"/></svg>